<?xml version="1.0" encoding="UTF-8"?>
<svg xmlns="http://www.w3.org/2000/svg" viewBox="9664 1888 6824 1856.33" width="2800" height="762" font-family="monospace">
<rect x="9664" y="1888" width="6824" height="1856.33" fill="#0a0a12"/>
<rect x="11328" y="2748.33" width="3912" height="900" fill="#f24d1a" fill-opacity="0.82" stroke="#f78b6a" stroke-width="2"/>
<rect x="11330" y="2750.33" width="112.16" height="30" fill="#000000" fill-opacity="0.7"/>
<text x="11334" y="2774.33" font-size="24" fill="#f78b6a">lava005</text>
<rect x="15240" y="2624" width="1152" height="128" fill="#b3b3b3" fill-opacity="0.82" stroke="#cdcdcd" stroke-width="2"/>
<rect x="15242" y="2626" width="112.16" height="30" fill="#000000" fill-opacity="0.7"/>
<text x="15246" y="2650" font-size="24" fill="#cdcdcd">misc021</text>
<rect x="9792" y="2624" width="960" height="128" fill="#b3b3b3" fill-opacity="0.82" stroke="#cdcdcd" stroke-width="2"/>
<rect x="9794" y="2626" width="112.16" height="30" fill="#000000" fill-opacity="0.7"/>
<text x="9798" y="2650" font-size="24" fill="#cdcdcd">misc007</text>
<rect x="10560" y="2624" width="768" height="128" fill="#b3b3b3" fill-opacity="0.82" stroke="#cdcdcd" stroke-width="2"/>
<rect x="10562" y="2626" width="112.16" height="30" fill="#000000" fill-opacity="0.7"/>
<text x="10566" y="2650" font-size="24" fill="#cdcdcd">misc008</text>
<rect x="9792" y="2144" width="960" height="64" fill="#b3b3b3" fill-opacity="0.82" stroke="#cdcdcd" stroke-width="2"/>
<rect x="9794" y="2146" width="112.16" height="30" fill="#000000" fill-opacity="0.7"/>
<text x="9798" y="2170" font-size="24" fill="#cdcdcd">misc005</text>
<rect x="9760" y="1984" width="128" height="448" fill="#73bff2" fill-opacity="0.82" stroke="#a4d6f7" stroke-width="2"/>
<rect x="9762" y="1986" width="127.04" height="30" fill="#000000" fill-opacity="0.7"/>
<text x="9766" y="2010" font-size="24" fill="#a4d6f7">glass001</text>
<rect x="13840" y="2540" width="320" height="128" fill="#b3b3b3" fill-opacity="0.82" stroke="#cdcdcd" stroke-width="2"/>
<rect x="13842" y="2542" width="112.16" height="30" fill="#000000" fill-opacity="0.7"/>
<text x="13846" y="2566" font-size="24" fill="#cdcdcd">misc017</text>
<rect x="12880" y="2540" width="320" height="128" fill="#b3b3b3" fill-opacity="0.82" stroke="#cdcdcd" stroke-width="2"/>
<rect x="12882" y="2542" width="112.16" height="30" fill="#000000" fill-opacity="0.7"/>
<text x="12886" y="2566" font-size="24" fill="#cdcdcd">misc014</text>
<rect x="11920" y="2540" width="320" height="128" fill="#b3b3b3" fill-opacity="0.82" stroke="#cdcdcd" stroke-width="2"/>
<rect x="11922" y="2542" width="112.16" height="30" fill="#000000" fill-opacity="0.7"/>
<text x="11926" y="2566" font-size="24" fill="#cdcdcd">misc011</text>
<rect x="14800" y="2624" width="320" height="128" fill="#b3b3b3" fill-opacity="0.82" stroke="#cdcdcd" stroke-width="2"/>
<rect x="14802" y="2626" width="112.16" height="30" fill="#000000" fill-opacity="0.7"/>
<text x="14806" y="2650" font-size="24" fill="#cdcdcd">misc020</text>
<rect x="14320" y="2624" width="320" height="128" fill="#b3b3b3" fill-opacity="0.82" stroke="#cdcdcd" stroke-width="2"/>
<rect x="14322" y="2626" width="112.16" height="30" fill="#000000" fill-opacity="0.7"/>
<text x="14326" y="2650" font-size="24" fill="#cdcdcd">misc019</text>
<rect x="13840" y="2624" width="320" height="128" fill="#b3b3b3" fill-opacity="0.82" stroke="#cdcdcd" stroke-width="2"/>
<rect x="13842" y="2626" width="112.16" height="30" fill="#000000" fill-opacity="0.7"/>
<text x="13846" y="2650" font-size="24" fill="#cdcdcd">misc018</text>
<rect x="11440" y="2624" width="320" height="128" fill="#b3b3b3" fill-opacity="0.82" stroke="#cdcdcd" stroke-width="2"/>
<rect x="11442" y="2626" width="112.16" height="30" fill="#000000" fill-opacity="0.7"/>
<text x="11446" y="2650" font-size="24" fill="#cdcdcd">misc010</text>
<rect x="11920" y="2624" width="320" height="128" fill="#b3b3b3" fill-opacity="0.82" stroke="#cdcdcd" stroke-width="2"/>
<rect x="11922" y="2626" width="112.16" height="30" fill="#000000" fill-opacity="0.7"/>
<text x="11926" y="2650" font-size="24" fill="#cdcdcd">misc012</text>
<rect x="12400" y="2624" width="320" height="128" fill="#b3b3b3" fill-opacity="0.82" stroke="#cdcdcd" stroke-width="2"/>
<rect x="12402" y="2626" width="112.16" height="30" fill="#000000" fill-opacity="0.7"/>
<text x="12406" y="2650" font-size="24" fill="#cdcdcd">misc013</text>
<rect x="12880" y="2624" width="320" height="128" fill="#b3b3b3" fill-opacity="0.82" stroke="#cdcdcd" stroke-width="2"/>
<rect x="12882" y="2626" width="112.16" height="30" fill="#000000" fill-opacity="0.7"/>
<text x="12886" y="2650" font-size="24" fill="#cdcdcd">misc015</text>
<rect x="13360" y="2624" width="320" height="128" fill="#b3b3b3" fill-opacity="0.82" stroke="#cdcdcd" stroke-width="2"/>
<rect x="13362" y="2626" width="112.16" height="30" fill="#000000" fill-opacity="0.7"/>
<text x="13366" y="2650" font-size="24" fill="#cdcdcd">misc016</text>
<rect x="13472" y="2848" width="384" height="64" fill="#4d80f2" fill-opacity="0.82" stroke="#8bacf7" stroke-width="2"/>
<rect x="13474" y="2850" width="112.16" height="30" fill="#000000" fill-opacity="0.7"/>
<text x="13478" y="2874" font-size="24" fill="#8bacf7">wall006</text>
<rect x="10688" y="2176" width="64" height="284" fill="#b3b3b3" fill-opacity="0.82" stroke="#cdcdcd" stroke-width="2"/>
<rect x="10690" y="2178" width="112.16" height="30" fill="#000000" fill-opacity="0.7"/>
<text x="10694" y="2202" font-size="24" fill="#cdcdcd">misc009</text>
<rect x="9792" y="2176" width="64" height="284" fill="#b3b3b3" fill-opacity="0.82" stroke="#cdcdcd" stroke-width="2"/>
<rect x="9794" y="2178" width="112.16" height="30" fill="#000000" fill-opacity="0.7"/>
<text x="9798" y="2202" font-size="24" fill="#cdcdcd">misc006</text>
<rect x="10654.67" y="2460" width="66.67" height="200" fill="#f2d933" fill-opacity="0.82" stroke="#f7e67a" stroke-width="2"/>
<rect x="10656.67" y="2462" width="112.16" height="30" fill="#000000" fill-opacity="0.7"/>
<text x="10660.67" y="2486" font-size="24" fill="#f7e67a">door002</text>
<rect x="9822.67" y="2460" width="66.67" height="200" fill="#f2d933" fill-opacity="0.82" stroke="#f7e67a" stroke-width="2"/>
<rect x="9824.67" y="2462" width="112.16" height="30" fill="#000000" fill-opacity="0.7"/>
<text x="9828.67" y="2486" font-size="24" fill="#f7e67a">door001</text>
<rect x="13440" y="2848" width="64" height="192" fill="#4d80f2" fill-opacity="0.82" stroke="#8bacf7" stroke-width="2"/>
<rect x="13442" y="2850" width="112.16" height="30" fill="#000000" fill-opacity="0.7"/>
<text x="13446" y="2874" font-size="24" fill="#8bacf7">wall005</text>
<rect x="13824" y="2848" width="64" height="192" fill="#4d80f2" fill-opacity="0.82" stroke="#8bacf7" stroke-width="2"/>
<rect x="13826" y="2850" width="112.16" height="30" fill="#000000" fill-opacity="0.7"/>
<text x="13830" y="2874" font-size="24" fill="#8bacf7">wall007</text>
<rect x="13652" y="2804" width="24" height="24" fill="#f28c26" fill-opacity="0.82" stroke="#f7b472" stroke-width="2"/>
<rect x="13654" y="2806" width="112.16" height="30" fill="#000000" fill-opacity="0.7"/>
<text x="13658" y="2830" font-size="24" fill="#f7b472">zone005</text>
</svg>