<?xml version="1.0" encoding="UTF-8"?>
<svg xmlns="http://www.w3.org/2000/svg" viewBox="16064 -1370 2325.33 7226" width="901" height="2800" font-family="monospace">
<rect x="16064" y="-1370" width="2325.33" height="7226" fill="#0a0a12"/>
<rect x="17298" y="-1209" width="700" height="3600" fill="#f28c26" fill-opacity="0.82" stroke="#f7b472" stroke-width="2"/>
<rect x="17300" y="-1207" width="112.16" height="30" fill="#000000" fill-opacity="0.7"/>
<text x="17304" y="-1183" font-size="24" fill="#f7b472">zone008</text>
<rect x="17424" y="2360" width="448" height="3400" fill="#f24d1a" fill-opacity="0.82" stroke="#f78b6a" stroke-width="2"/>
<rect x="17426" y="2362" width="112.16" height="30" fill="#000000" fill-opacity="0.7"/>
<text x="17430" y="2386" font-size="24" fill="#f78b6a">lava006</text>
<rect x="16936" y="-1042" width="64" height="3106" fill="#b3b3b3" fill-opacity="0.82" stroke="#cdcdcd" stroke-width="2"/>
<rect x="16938" y="-1040" width="112.16" height="30" fill="#000000" fill-opacity="0.7"/>
<text x="16942" y="-1016" font-size="24" fill="#cdcdcd">misc024</text>
<rect x="17360" y="-1042" width="64" height="2942" fill="#b3b3b3" fill-opacity="0.82" stroke="#cdcdcd" stroke-width="2"/>
<rect x="17362" y="-1040" width="112.16" height="30" fill="#000000" fill-opacity="0.7"/>
<text x="17366" y="-1016" font-size="24" fill="#cdcdcd">misc027</text>
<rect x="17872" y="-636" width="64" height="2844" fill="#b3b3b3" fill-opacity="0.82" stroke="#cdcdcd" stroke-width="2"/>
<rect x="17874" y="-634" width="112.16" height="30" fill="#000000" fill-opacity="0.7"/>
<text x="17878" y="-610" font-size="24" fill="#cdcdcd">misc031</text>
<rect x="17000" y="2208" width="872" height="128" fill="#b3b3b3" fill-opacity="0.82" stroke="#cdcdcd" stroke-width="2"/>
<rect x="17002" y="2210" width="112.16" height="30" fill="#000000" fill-opacity="0.7"/>
<text x="17006" y="2234" font-size="24" fill="#cdcdcd">misc025</text>
<rect x="17520" y="-1074" width="704" height="128" fill="#b3b3b3" fill-opacity="0.82" stroke="#cdcdcd" stroke-width="2"/>
<rect x="17522" y="-1072" width="112.16" height="30" fill="#000000" fill-opacity="0.7"/>
<text x="17526" y="-1048" font-size="24" fill="#cdcdcd">misc028</text>
<rect x="17424" y="2092" width="448" height="116" fill="#f28c26" fill-opacity="0.82" stroke="#f7b472" stroke-width="2"/>
<rect x="17426" y="2094" width="112.16" height="30" fill="#000000" fill-opacity="0.7"/>
<text x="17430" y="2118" font-size="24" fill="#f7b472">zone011</text>
<rect x="17520" y="-1266" width="704" height="64" fill="#334db3" fill-opacity="0.82" stroke="#7a8bcd" stroke-width="2"/>
<rect x="17522" y="-1264" width="112.16" height="30" fill="#000000" fill-opacity="0.7"/>
<text x="17526" y="-1240" font-size="24" fill="#7a8bcd">ceil008</text>
<rect x="16160" y="2624" width="320" height="128" fill="#b3b3b3" fill-opacity="0.82" stroke="#cdcdcd" stroke-width="2"/>
<rect x="16162" y="2626" width="112.16" height="30" fill="#000000" fill-opacity="0.7"/>
<text x="16166" y="2650" font-size="24" fill="#cdcdcd">misc022</text>
<rect x="16800" y="-1274" width="580" height="64" fill="#334db3" fill-opacity="0.82" stroke="#7a8bcd" stroke-width="2"/>
<rect x="16802" y="-1272" width="112.16" height="30" fill="#000000" fill-opacity="0.7"/>
<text x="16806" y="-1248" font-size="24" fill="#7a8bcd">ceil006</text>
<rect x="16800" y="-986" width="280" height="128" fill="#8c8c8c" fill-opacity="0.82" stroke="#b4b4b4" stroke-width="2"/>
<rect x="16802" y="-984" width="127.04" height="30" fill="#000000" fill-opacity="0.7"/>
<text x="16806" y="-960" font-size="24" fill="#b4b4b4">floor002</text>
<rect x="17520" y="-1026" width="64" height="390" fill="#b3b3b3" fill-opacity="0.82" stroke="#cdcdcd" stroke-width="2"/>
<rect x="17522" y="-1024" width="112.16" height="30" fill="#000000" fill-opacity="0.7"/>
<text x="17526" y="-1000" font-size="24" fill="#cdcdcd">misc029</text>
<rect x="17000" y="2064" width="540" height="32" fill="#8c8c8c" fill-opacity="0.82" stroke="#b4b4b4" stroke-width="2"/>
<rect x="17002" y="2066" width="127.04" height="30" fill="#000000" fill-opacity="0.7"/>
<text x="17006" y="2090" font-size="24" fill="#b4b4b4">floor003</text>
<rect x="16288" y="2368" width="64" height="256" fill="#f28c26" fill-opacity="0.82" stroke="#f7b472" stroke-width="2"/>
<rect x="16290" y="2370" width="112.16" height="30" fill="#000000" fill-opacity="0.7"/>
<text x="16294" y="2394" font-size="24" fill="#f7b472">zone006</text>
<rect x="17424" y="1760" width="256" height="64" fill="#4dd959" fill-opacity="0.82" stroke="#8be693" stroke-width="2"/>
<rect x="17426" y="1762" width="112.16" height="30" fill="#000000" fill-opacity="0.7"/>
<text x="17430" y="1786" font-size="24" fill="#8be693">plat008</text>
<rect x="17616" y="1312" width="256" height="64" fill="#4dd959" fill-opacity="0.82" stroke="#8be693" stroke-width="2"/>
<rect x="17618" y="1314" width="112.16" height="30" fill="#000000" fill-opacity="0.7"/>
<text x="17622" y="1338" font-size="24" fill="#8be693">plat012</text>
<rect x="17424" y="800" width="256" height="64" fill="#4dd959" fill-opacity="0.82" stroke="#8be693" stroke-width="2"/>
<rect x="17426" y="802" width="112.16" height="30" fill="#000000" fill-opacity="0.7"/>
<text x="17430" y="826" font-size="24" fill="#8be693">plat007</text>
<rect x="17616" y="352" width="256" height="64" fill="#4dd959" fill-opacity="0.82" stroke="#8be693" stroke-width="2"/>
<rect x="17618" y="354" width="112.16" height="30" fill="#000000" fill-opacity="0.7"/>
<text x="17622" y="378" font-size="24" fill="#8be693">plat011</text>
<rect x="16736" y="-1210" width="64" height="256" fill="#b3b3b3" fill-opacity="0.82" stroke="#cdcdcd" stroke-width="2"/>
<rect x="16738" y="-1208" width="112.16" height="30" fill="#000000" fill-opacity="0.7"/>
<text x="16742" y="-1184" font-size="24" fill="#cdcdcd">misc023</text>
<rect x="17424" y="-160" width="256" height="64" fill="#4dd959" fill-opacity="0.82" stroke="#8be693" stroke-width="2"/>
<rect x="17426" y="-158" width="112.16" height="30" fill="#000000" fill-opacity="0.7"/>
<text x="17430" y="-134" font-size="24" fill="#8be693">plat005</text>
<rect x="16864" y="2312" width="128" height="128" fill="#a6a640" fill-opacity="0.82" stroke="#c5c583" stroke-width="2"/>
<rect x="16866" y="2314" width="112.16" height="30" fill="#000000" fill-opacity="0.7"/>
<text x="16870" y="2338" font-size="24" fill="#c5c583">step003</text>
<rect x="16672" y="2416" width="128" height="128" fill="#a6a640" fill-opacity="0.82" stroke="#c5c583" stroke-width="2"/>
<rect x="16674" y="2418" width="112.16" height="30" fill="#000000" fill-opacity="0.7"/>
<text x="16678" y="2442" font-size="24" fill="#c5c583">step002</text>
<rect x="16480" y="2520" width="128" height="128" fill="#a6a640" fill-opacity="0.82" stroke="#c5c583" stroke-width="2"/>
<rect x="16482" y="2522" width="112.16" height="30" fill="#000000" fill-opacity="0.7"/>
<text x="16486" y="2546" font-size="24" fill="#c5c583">step001</text>
<rect x="17360" y="-1210" width="64" height="224" fill="#996b40" fill-opacity="0.82" stroke="#bd9f83" stroke-width="2"/>
<rect x="17362" y="-1208" width="127.04" height="30" fill="#000000" fill-opacity="0.7"/>
<text x="17366" y="-1184" font-size="24" fill="#bd9f83">block002</text>
<rect x="18226.67" y="-1238" width="66.67" height="200" fill="#f2d933" fill-opacity="0.82" stroke="#f7e67a" stroke-width="2"/>
<rect x="18228.67" y="-1236" width="112.16" height="30" fill="#000000" fill-opacity="0.7"/>
<text x="18232.67" y="-1212" font-size="24" fill="#f7e67a">door003</text>
<rect x="17280" y="-986" width="100" height="128" fill="#8c8c8c" fill-opacity="0.82" stroke="#b4b4b4" stroke-width="2"/>
<rect x="17282" y="-984" width="127.04" height="30" fill="#000000" fill-opacity="0.7"/>
<text x="17286" y="-960" font-size="24" fill="#b4b4b4">floor004</text>
<rect x="17520" y="-668" width="352" height="32" fill="#b3b3b3" fill-opacity="0.82" stroke="#cdcdcd" stroke-width="2"/>
<rect x="17522" y="-666" width="112.16" height="30" fill="#000000" fill-opacity="0.7"/>
<text x="17526" y="-642" font-size="24" fill="#cdcdcd">misc030</text>
<rect x="17360" y="1900" width="64" height="164" fill="#996b40" fill-opacity="0.82" stroke="#bd9f83" stroke-width="2"/>
<rect x="17362" y="1902" width="127.04" height="30" fill="#000000" fill-opacity="0.7"/>
<text x="17366" y="1926" font-size="24" fill="#bd9f83">block003</text>
<rect x="17360" y="-1074" width="64" height="128" fill="#b3b3b3" fill-opacity="0.82" stroke="#cdcdcd" stroke-width="2"/>
<rect x="17362" y="-1072" width="112.16" height="30" fill="#000000" fill-opacity="0.7"/>
<text x="17366" y="-1048" font-size="24" fill="#cdcdcd">misc026</text>
<rect x="17412" y="-480" width="40" height="200" fill="#d93373" fill-opacity="0.82" stroke="#e67aa4" stroke-width="2"/>
<rect x="17414" y="-478" width="141.92" height="30" fill="#000000" fill-opacity="0.7"/>
<text x="17418" y="-454" font-size="24" fill="#e67aa4">spikes002</text>
<rect x="17328" y="-1210" width="32" height="224" fill="#f28c26" fill-opacity="0.82" stroke="#f7b472" stroke-width="2"/>
<rect x="17330" y="-1208" width="112.16" height="30" fill="#000000" fill-opacity="0.7"/>
<text x="17334" y="-1184" font-size="24" fill="#f7b472">zone009</text>
<rect x="17090.68" y="2119.93" width="72" height="96" fill="#e64040" fill-opacity="0.82" stroke="#ee8383" stroke-width="2"/>
<rect x="17092.68" y="2121.93" width="127.04" height="30" fill="#000000" fill-opacity="0.7"/>
<text x="17096.68" y="2145.93" font-size="24" fill="#ee8383">grunt034</text>
<rect x="16390.68" y="2535.93" width="72" height="96" fill="#e64040" fill-opacity="0.82" stroke="#ee8383" stroke-width="2"/>
<rect x="16392.68" y="2537.93" width="127.04" height="30" fill="#000000" fill-opacity="0.7"/>
<text x="16396.68" y="2561.93" font-size="24" fill="#ee8383">grunt033</text>
<rect x="17510.68" y="-248.06" width="72" height="96" fill="#e64040" fill-opacity="0.82" stroke="#ee8383" stroke-width="2"/>
<rect x="17512.68" y="-246.06" width="127.04" height="30" fill="#000000" fill-opacity="0.7"/>
<text x="17516.68" y="-222.06" font-size="24" fill="#ee8383">grunt035</text>
<rect x="17650.68" y="103.12" width="72" height="96" fill="#e64040" fill-opacity="0.82" stroke="#ee8383" stroke-width="2"/>
<rect x="17652.68" y="105.12" width="127.04" height="30" fill="#000000" fill-opacity="0.7"/>
<text x="17656.68" y="129.12" font-size="24" fill="#ee8383">grunt038</text>
<rect x="17690.68" y="842.67" width="72" height="96" fill="#e64040" fill-opacity="0.82" stroke="#ee8383" stroke-width="2"/>
<rect x="17692.68" y="844.67" width="127.04" height="30" fill="#000000" fill-opacity="0.7"/>
<text x="17696.68" y="868.67" font-size="24" fill="#ee8383">grunt039</text>
<rect x="17637.35" y="1067.54" width="72" height="96" fill="#e64040" fill-opacity="0.82" stroke="#ee8383" stroke-width="2"/>
<rect x="17639.35" y="1069.54" width="127.04" height="30" fill="#000000" fill-opacity="0.7"/>
<text x="17643.35" y="1093.54" font-size="24" fill="#ee8383">grunt037</text>
<rect x="17537.25" y="1237.12" width="72" height="96" fill="#e64040" fill-opacity="0.82" stroke="#ee8383" stroke-width="2"/>
<rect x="17539.25" y="1239.12" width="127.04" height="30" fill="#000000" fill-opacity="0.7"/>
<text x="17543.25" y="1263.12" font-size="24" fill="#ee8383">grunt036</text>
<rect x="17416" y="-480" width="32" height="200" fill="#d93373" fill-opacity="0.82" stroke="#e67aa4" stroke-width="2"/>
<rect x="17418" y="-478" width="141.92" height="30" fill="#000000" fill-opacity="0.7"/>
<text x="17422" y="-454" font-size="24" fill="#e67aa4">spikes004</text>
<rect x="17839" y="-636" width="40" height="160" fill="#d93373" fill-opacity="0.82" stroke="#e67aa4" stroke-width="2"/>
<rect x="17841" y="-634" width="141.92" height="30" fill="#000000" fill-opacity="0.7"/>
<text x="17845" y="-610" font-size="24" fill="#e67aa4">spikes009</text>
<rect x="17084" y="2003.5" width="192" height="32" fill="#33e6e6" fill-opacity="0.82" stroke="#7aeeee" stroke-width="2"/>
<rect x="17086" y="2005.5" width="112.16" height="30" fill="#000000" fill-opacity="0.7"/>
<text x="17090" y="2029.5" font-size="24" fill="#7aeeee">movp013</text>
<rect x="17424" y="1900" width="32" height="164" fill="#f28c26" fill-opacity="0.82" stroke="#f7b472" stroke-width="2"/>
<rect x="17426" y="1902" width="112.16" height="30" fill="#000000" fill-opacity="0.7"/>
<text x="17430" y="1926" font-size="24" fill="#f7b472">zone010</text>
<rect x="17843" y="-636" width="32" height="160" fill="#d93373" fill-opacity="0.82" stroke="#e67aa4" stroke-width="2"/>
<rect x="17845" y="-634" width="141.92" height="30" fill="#000000" fill-opacity="0.7"/>
<text x="17849" y="-610" font-size="24" fill="#e67aa4">spikes012</text>
<rect x="17528" y="76" width="128" height="32" fill="#4dd959" fill-opacity="0.82" stroke="#8be693" stroke-width="2"/>
<rect x="17530" y="78" width="112.16" height="30" fill="#000000" fill-opacity="0.7"/>
<text x="17534" y="102" font-size="24" fill="#8be693">plat009</text>
<rect x="17584" y="-420" width="128" height="32" fill="#4dd959" fill-opacity="0.82" stroke="#8be693" stroke-width="2"/>
<rect x="17586" y="-418" width="112.16" height="30" fill="#000000" fill-opacity="0.7"/>
<text x="17590" y="-394" font-size="24" fill="#8be693">plat010</text>
<rect x="17520" y="1817" width="128" height="32" fill="#d93373" fill-opacity="0.82" stroke="#e67aa4" stroke-width="2"/>
<rect x="17522" y="1819" width="141.92" height="30" fill="#000000" fill-opacity="0.7"/>
<text x="17526" y="1843" font-size="24" fill="#e67aa4">spikes006</text>
<rect x="16908" y="-1046" width="64" height="64" fill="#f28c26" fill-opacity="0.82" stroke="#f7b472" stroke-width="2"/>
<rect x="16910" y="-1044" width="112.16" height="30" fill="#000000" fill-opacity="0.7"/>
<text x="16914" y="-1020" font-size="24" fill="#f7b472">zone007</text>
<rect x="17648" y="1369" width="128" height="32" fill="#d93373" fill-opacity="0.82" stroke="#e67aa4" stroke-width="2"/>
<rect x="17650" y="1371" width="141.92" height="30" fill="#000000" fill-opacity="0.7"/>
<text x="17654" y="1395" font-size="24" fill="#e67aa4">spikes008</text>
<rect x="17648" y="409" width="128" height="32" fill="#d93373" fill-opacity="0.82" stroke="#e67aa4" stroke-width="2"/>
<rect x="17650" y="411" width="141.92" height="30" fill="#000000" fill-opacity="0.7"/>
<text x="17654" y="435" font-size="24" fill="#e67aa4">spikes007</text>
<rect x="17808" y="1952" width="64" height="64" fill="#4dd959" fill-opacity="0.82" stroke="#8be693" stroke-width="2"/>
<rect x="17810" y="1954" width="112.16" height="30" fill="#000000" fill-opacity="0.7"/>
<text x="17814" y="1978" font-size="24" fill="#8be693">plat016</text>
<rect x="17808" y="-352" width="64" height="64" fill="#4dd959" fill-opacity="0.82" stroke="#8be693" stroke-width="2"/>
<rect x="17810" y="-350" width="112.16" height="30" fill="#000000" fill-opacity="0.7"/>
<text x="17814" y="-326" font-size="24" fill="#8be693">plat013</text>
<rect x="17808" y="1056" width="64" height="64" fill="#4dd959" fill-opacity="0.82" stroke="#8be693" stroke-width="2"/>
<rect x="17810" y="1058" width="112.16" height="30" fill="#000000" fill-opacity="0.7"/>
<text x="17814" y="1082" font-size="24" fill="#8be693">plat015</text>
<rect x="17424" y="544" width="64" height="64" fill="#4dd959" fill-opacity="0.82" stroke="#8be693" stroke-width="2"/>
<rect x="17426" y="546" width="112.16" height="30" fill="#000000" fill-opacity="0.7"/>
<text x="17430" y="570" font-size="24" fill="#8be693">plat006</text>
<rect x="17808" y="96" width="64" height="64" fill="#4dd959" fill-opacity="0.82" stroke="#8be693" stroke-width="2"/>
<rect x="17810" y="98" width="112.16" height="30" fill="#000000" fill-opacity="0.7"/>
<text x="17814" y="122" font-size="24" fill="#8be693">plat014</text>
<rect x="17360" y="-1266" width="64" height="64" fill="#334db3" fill-opacity="0.82" stroke="#7a8bcd" stroke-width="2"/>
<rect x="17362" y="-1264" width="112.16" height="30" fill="#000000" fill-opacity="0.7"/>
<text x="17366" y="-1240" font-size="24" fill="#7a8bcd">ceil007</text>
<rect x="17839" y="1120" width="40" height="64" fill="#d93373" fill-opacity="0.82" stroke="#e67aa4" stroke-width="2"/>
<rect x="17841" y="1122" width="141.92" height="30" fill="#000000" fill-opacity="0.7"/>
<text x="17845" y="1146" font-size="24" fill="#e67aa4">spikes011</text>
<rect x="17412" y="608" width="40" height="64" fill="#d93373" fill-opacity="0.82" stroke="#e67aa4" stroke-width="2"/>
<rect x="17414" y="610" width="141.92" height="30" fill="#000000" fill-opacity="0.7"/>
<text x="17418" y="634" font-size="24" fill="#e67aa4">spikes003</text>
<rect x="17839" y="160" width="40" height="64" fill="#d93373" fill-opacity="0.82" stroke="#e67aa4" stroke-width="2"/>
<rect x="17841" y="162" width="141.92" height="30" fill="#000000" fill-opacity="0.7"/>
<text x="17845" y="186" font-size="24" fill="#e67aa4">spikes010</text>
<rect x="17843" y="1120" width="32" height="64" fill="#d93373" fill-opacity="0.82" stroke="#e67aa4" stroke-width="2"/>
<rect x="17845" y="1122" width="141.92" height="30" fill="#000000" fill-opacity="0.7"/>
<text x="17849" y="1146" font-size="24" fill="#e67aa4">spikes014</text>
<rect x="17584" y="-436" width="128" height="16" fill="#f28c26" fill-opacity="0.82" stroke="#f7b472" stroke-width="2"/>
<rect x="17586" y="-434" width="112.16" height="30" fill="#000000" fill-opacity="0.7"/>
<text x="17590" y="-410" font-size="24" fill="#f7b472">zone013</text>
<rect x="17528" y="60" width="128" height="16" fill="#f28c26" fill-opacity="0.82" stroke="#f7b472" stroke-width="2"/>
<rect x="17530" y="62" width="112.16" height="30" fill="#000000" fill-opacity="0.7"/>
<text x="17534" y="86" font-size="24" fill="#f7b472">zone012</text>
<rect x="17416" y="608" width="32" height="64" fill="#d93373" fill-opacity="0.82" stroke="#e67aa4" stroke-width="2"/>
<rect x="17418" y="610" width="141.92" height="30" fill="#000000" fill-opacity="0.7"/>
<text x="17422" y="634" font-size="24" fill="#e67aa4">spikes005</text>
<rect x="17843" y="160" width="32" height="64" fill="#d93373" fill-opacity="0.82" stroke="#e67aa4" stroke-width="2"/>
<rect x="17845" y="162" width="141.92" height="30" fill="#000000" fill-opacity="0.7"/>
<text x="17849" y="186" font-size="24" fill="#e67aa4">spikes013</text>
</svg>