<?xml version="1.0" encoding="UTF-8"?>
<svg xmlns="http://www.w3.org/2000/svg" viewBox="16064 -56 2892 4212" width="1923" height="2800" font-family="monospace">
<rect x="16064" y="-56" width="2892" height="4212" fill="#0a0a12"/>
<rect x="17340" y="2360" width="1000" height="1700" fill="#f24d1a" fill-opacity="0.82" stroke="#f78b6a" stroke-width="2"/>
<rect x="17342" y="2362" width="112.16" height="30" fill="#000000" fill-opacity="0.7"/>
<text x="17346" y="2386" font-size="24" fill="#f78b6a">lava006</text>
<rect x="16936" y="456" width="64" height="1600" fill="#b3b3b3" fill-opacity="0.82" stroke="#cdcdcd" stroke-width="2"/>
<rect x="16938" y="458" width="112.16" height="30" fill="#000000" fill-opacity="0.7"/>
<text x="16942" y="482" font-size="24" fill="#cdcdcd">misc024</text>
<rect x="17360" y="456" width="64" height="1444" fill="#b3b3b3" fill-opacity="0.82" stroke="#cdcdcd" stroke-width="2"/>
<rect x="17362" y="458" width="112.16" height="30" fill="#000000" fill-opacity="0.7"/>
<text x="17366" y="482" font-size="24" fill="#cdcdcd">misc032</text>
<rect x="17000" y="2208" width="616" height="128" fill="#b3b3b3" fill-opacity="0.82" stroke="#cdcdcd" stroke-width="2"/>
<rect x="17002" y="2210" width="112.16" height="30" fill="#000000" fill-opacity="0.7"/>
<text x="17006" y="2234" font-size="24" fill="#cdcdcd">misc025</text>
<rect x="17616" y="328" width="584" height="128" fill="#b3b3b3" fill-opacity="0.82" stroke="#cdcdcd" stroke-width="2"/>
<rect x="17618" y="330" width="112.16" height="30" fill="#000000" fill-opacity="0.7"/>
<text x="17622" y="354" font-size="24" fill="#cdcdcd">misc037</text>
<rect x="17424" y="2092" width="576" height="116" fill="#f28c26" fill-opacity="0.82" stroke="#f7b472" stroke-width="2"/>
<rect x="17426" y="2094" width="112.16" height="30" fill="#000000" fill-opacity="0.7"/>
<text x="17430" y="2118" font-size="24" fill="#f7b472">zone009</text>
<rect x="18200" y="376" width="660" height="64" fill="#b3b3b3" fill-opacity="0.82" stroke="#cdcdcd" stroke-width="2"/>
<rect x="18202" y="378" width="112.16" height="30" fill="#000000" fill-opacity="0.7"/>
<text x="18206" y="402" font-size="24" fill="#cdcdcd">misc046</text>
<rect x="18200" y="176" width="660" height="64" fill="#b3b3b3" fill-opacity="0.82" stroke="#cdcdcd" stroke-width="2"/>
<rect x="18202" y="178" width="112.16" height="30" fill="#000000" fill-opacity="0.7"/>
<text x="18206" y="202" font-size="24" fill="#cdcdcd">misc045</text>
<rect x="16160" y="2624" width="320" height="128" fill="#b3b3b3" fill-opacity="0.82" stroke="#cdcdcd" stroke-width="2"/>
<rect x="16162" y="2626" width="112.16" height="30" fill="#000000" fill-opacity="0.7"/>
<text x="16166" y="2650" font-size="24" fill="#cdcdcd">misc022</text>
<rect x="16800" y="40" width="580" height="64" fill="#334db3" fill-opacity="0.82" stroke="#7a8bcd" stroke-width="2"/>
<rect x="16802" y="42" width="112.16" height="30" fill="#000000" fill-opacity="0.7"/>
<text x="16806" y="66" font-size="24" fill="#7a8bcd">ceil004</text>
<rect x="16800" y="328" width="280" height="128" fill="#8c8c8c" fill-opacity="0.82" stroke="#b4b4b4" stroke-width="2"/>
<rect x="16802" y="330" width="127.04" height="30" fill="#000000" fill-opacity="0.7"/>
<text x="16806" y="354" font-size="24" fill="#b4b4b4">floor002</text>
<rect x="17328" y="1260" width="64" height="320" fill="#b3b3b3" fill-opacity="0.82" stroke="#cdcdcd" stroke-width="2"/>
<rect x="17330" y="1262" width="112.16" height="30" fill="#000000" fill-opacity="0.7"/>
<text x="17334" y="1286" font-size="24" fill="#cdcdcd">misc029</text>
<rect x="18160" y="1260" width="64" height="320" fill="#b3b3b3" fill-opacity="0.82" stroke="#cdcdcd" stroke-width="2"/>
<rect x="18162" y="1262" width="112.16" height="30" fill="#000000" fill-opacity="0.7"/>
<text x="18166" y="1286" font-size="24" fill="#cdcdcd">misc044</text>
<rect x="17296" y="940" width="64" height="320" fill="#b3b3b3" fill-opacity="0.82" stroke="#cdcdcd" stroke-width="2"/>
<rect x="17298" y="942" width="112.16" height="30" fill="#000000" fill-opacity="0.7"/>
<text x="17302" y="966" font-size="24" fill="#cdcdcd">misc026</text>
<rect x="18320" y="940" width="64" height="320" fill="#b3b3b3" fill-opacity="0.82" stroke="#cdcdcd" stroke-width="2"/>
<rect x="18322" y="942" width="112.16" height="30" fill="#000000" fill-opacity="0.7"/>
<text x="18326" y="966" font-size="24" fill="#cdcdcd">misc047</text>
<rect x="17328" y="620" width="64" height="320" fill="#b3b3b3" fill-opacity="0.82" stroke="#cdcdcd" stroke-width="2"/>
<rect x="17330" y="622" width="112.16" height="30" fill="#000000" fill-opacity="0.7"/>
<text x="17334" y="646" font-size="24" fill="#cdcdcd">misc028</text>
<rect x="18160" y="620" width="64" height="320" fill="#b3b3b3" fill-opacity="0.82" stroke="#cdcdcd" stroke-width="2"/>
<rect x="18162" y="622" width="112.16" height="30" fill="#000000" fill-opacity="0.7"/>
<text x="18166" y="646" font-size="24" fill="#cdcdcd">misc043</text>
<rect x="18320" y="1580" width="64" height="320" fill="#b3b3b3" fill-opacity="0.82" stroke="#cdcdcd" stroke-width="2"/>
<rect x="18322" y="1582" width="112.16" height="30" fill="#000000" fill-opacity="0.7"/>
<text x="18326" y="1606" font-size="24" fill="#cdcdcd">misc048</text>
<rect x="17296" y="1580" width="64" height="320" fill="#b3b3b3" fill-opacity="0.82" stroke="#cdcdcd" stroke-width="2"/>
<rect x="17298" y="1582" width="112.16" height="30" fill="#000000" fill-opacity="0.7"/>
<text x="17302" y="1606" font-size="24" fill="#cdcdcd">misc027</text>
<rect x="18000" y="1900" width="64" height="308" fill="#b3b3b3" fill-opacity="0.82" stroke="#cdcdcd" stroke-width="2"/>
<rect x="18002" y="1902" width="112.16" height="30" fill="#000000" fill-opacity="0.7"/>
<text x="18006" y="1926" font-size="24" fill="#cdcdcd">misc040</text>
<rect x="17360" y="360" width="64" height="260" fill="#b3b3b3" fill-opacity="0.82" stroke="#cdcdcd" stroke-width="2"/>
<rect x="17362" y="362" width="112.16" height="30" fill="#000000" fill-opacity="0.7"/>
<text x="17366" y="386" font-size="24" fill="#cdcdcd">misc031</text>
<rect x="17616" y="360" width="64" height="260" fill="#b3b3b3" fill-opacity="0.82" stroke="#cdcdcd" stroke-width="2"/>
<rect x="17618" y="362" width="112.16" height="30" fill="#000000" fill-opacity="0.7"/>
<text x="17622" y="386" font-size="24" fill="#cdcdcd">misc038</text>
<rect x="16736" y="104" width="64" height="256" fill="#b3b3b3" fill-opacity="0.82" stroke="#cdcdcd" stroke-width="2"/>
<rect x="16738" y="106" width="112.16" height="30" fill="#000000" fill-opacity="0.7"/>
<text x="16742" y="130" font-size="24" fill="#cdcdcd">misc023</text>
<rect x="16480" y="2520" width="128" height="128" fill="#a6a640" fill-opacity="0.82" stroke="#c5c583" stroke-width="2"/>
<rect x="16482" y="2522" width="112.16" height="30" fill="#000000" fill-opacity="0.7"/>
<text x="16486" y="2546" font-size="24" fill="#c5c583">step001</text>
<rect x="16672" y="2416" width="128" height="128" fill="#a6a640" fill-opacity="0.82" stroke="#c5c583" stroke-width="2"/>
<rect x="16674" y="2418" width="112.16" height="30" fill="#000000" fill-opacity="0.7"/>
<text x="16678" y="2442" font-size="24" fill="#c5c583">step002</text>
<rect x="16864" y="2312" width="128" height="128" fill="#a6a640" fill-opacity="0.82" stroke="#c5c583" stroke-width="2"/>
<rect x="16866" y="2314" width="112.16" height="30" fill="#000000" fill-opacity="0.7"/>
<text x="16870" y="2338" font-size="24" fill="#c5c583">step003</text>
<rect x="17056" y="2208" width="128" height="128" fill="#a6a640" fill-opacity="0.82" stroke="#c5c583" stroke-width="2"/>
<rect x="17058" y="2210" width="112.16" height="30" fill="#000000" fill-opacity="0.7"/>
<text x="17062" y="2234" font-size="24" fill="#c5c583">step004</text>
<rect x="17380" y="104" width="64" height="224" fill="#b3b3b3" fill-opacity="0.82" stroke="#cdcdcd" stroke-width="2"/>
<rect x="17382" y="106" width="112.16" height="30" fill="#000000" fill-opacity="0.7"/>
<text x="17386" y="130" font-size="24" fill="#cdcdcd">misc036</text>
<rect x="18226.67" y="212" width="66.67" height="200" fill="#f2d933" fill-opacity="0.82" stroke="#f7e67a" stroke-width="2"/>
<rect x="18228.67" y="214" width="112.16" height="30" fill="#000000" fill-opacity="0.7"/>
<text x="18232.67" y="238" font-size="24" fill="#f7e67a">door003</text>
<rect x="17280" y="328" width="100" height="128" fill="#8c8c8c" fill-opacity="0.82" stroke="#b4b4b4" stroke-width="2"/>
<rect x="17282" y="330" width="127.04" height="30" fill="#000000" fill-opacity="0.7"/>
<text x="17286" y="354" font-size="24" fill="#b4b4b4">floor004</text>
<rect x="18256" y="1640" width="64" height="200" fill="#d93373" fill-opacity="0.82" stroke="#e67aa4" stroke-width="2"/>
<rect x="18258" y="1642" width="141.92" height="30" fill="#000000" fill-opacity="0.7"/>
<text x="18262" y="1666" font-size="24" fill="#e67aa4">spikes004</text>
<rect x="18256" y="1640" width="64" height="200" fill="#d93373" fill-opacity="0.82" stroke="#e67aa4" stroke-width="2"/>
<rect x="18258" y="1642" width="141.92" height="30" fill="#000000" fill-opacity="0.7"/>
<text x="18262" y="1666" font-size="24" fill="#e67aa4">spikes005</text>
<rect x="18256" y="1000" width="64" height="200" fill="#d93373" fill-opacity="0.82" stroke="#e67aa4" stroke-width="2"/>
<rect x="18258" y="1002" width="141.92" height="30" fill="#000000" fill-opacity="0.7"/>
<text x="18262" y="1026" font-size="24" fill="#e67aa4">spikes002</text>
<rect x="18256" y="1000" width="64" height="200" fill="#d93373" fill-opacity="0.82" stroke="#e67aa4" stroke-width="2"/>
<rect x="18258" y="1002" width="141.92" height="30" fill="#000000" fill-opacity="0.7"/>
<text x="18262" y="1026" font-size="24" fill="#e67aa4">spikes003</text>
<rect x="17000" y="2024" width="360" height="32" fill="#8c8c8c" fill-opacity="0.82" stroke="#b4b4b4" stroke-width="2"/>
<rect x="17002" y="2026" width="127.04" height="30" fill="#000000" fill-opacity="0.7"/>
<text x="17006" y="2050" font-size="24" fill="#b4b4b4">floor003</text>
<rect x="17360" y="1900" width="64" height="156" fill="#b3b3b3" fill-opacity="0.82" stroke="#cdcdcd" stroke-width="2"/>
<rect x="17362" y="1902" width="112.16" height="30" fill="#000000" fill-opacity="0.7"/>
<text x="17366" y="1926" font-size="24" fill="#cdcdcd">misc035</text>
<rect x="17360" y="328" width="64" height="128" fill="#b3b3b3" fill-opacity="0.82" stroke="#cdcdcd" stroke-width="2"/>
<rect x="17362" y="330" width="112.16" height="30" fill="#000000" fill-opacity="0.7"/>
<text x="17366" y="354" font-size="24" fill="#cdcdcd">misc030</text>
<rect x="17348" y="104" width="32" height="224" fill="#f28c26" fill-opacity="0.82" stroke="#f7b472" stroke-width="2"/>
<rect x="17350" y="106" width="112.16" height="30" fill="#000000" fill-opacity="0.7"/>
<text x="17354" y="130" font-size="24" fill="#f7b472">zone007</text>
<rect x="16378.67" y="2509.97" width="72" height="96" fill="#e64040" fill-opacity="0.82" stroke="#ee8383" stroke-width="2"/>
<rect x="16380.67" y="2511.97" width="127.04" height="30" fill="#000000" fill-opacity="0.7"/>
<text x="16384.67" y="2535.97" font-size="24" fill="#ee8383">grunt033</text>
<rect x="17700.08" y="552.22" width="72" height="96" fill="#e64040" fill-opacity="0.82" stroke="#ee8383" stroke-width="2"/>
<rect x="17702.08" y="554.22" width="127.04" height="30" fill="#000000" fill-opacity="0.7"/>
<text x="17706.08" y="578.22" font-size="24" fill="#ee8383">grunt039</text>
<rect x="17878.67" y="652.22" width="72" height="96" fill="#e64040" fill-opacity="0.82" stroke="#ee8383" stroke-width="2"/>
<rect x="17880.67" y="654.22" width="127.04" height="30" fill="#000000" fill-opacity="0.7"/>
<text x="17884.67" y="678.22" font-size="24" fill="#ee8383">grunt041</text>
<rect x="17978.67" y="1152.22" width="72" height="96" fill="#e64040" fill-opacity="0.82" stroke="#ee8383" stroke-width="2"/>
<rect x="17980.67" y="1154.22" width="127.04" height="30" fill="#000000" fill-opacity="0.7"/>
<text x="17984.67" y="1178.22" font-size="24" fill="#ee8383">grunt042</text>
<rect x="17678.67" y="1057.79" width="72" height="96" fill="#e64040" fill-opacity="0.82" stroke="#ee8383" stroke-width="2"/>
<rect x="17680.67" y="1059.79" width="127.04" height="30" fill="#000000" fill-opacity="0.7"/>
<text x="17684.67" y="1083.79" font-size="24" fill="#ee8383">grunt038</text>
<rect x="17778.67" y="239.93" width="72" height="96" fill="#e64040" fill-opacity="0.82" stroke="#ee8383" stroke-width="2"/>
<rect x="17780.67" y="241.93" width="127.04" height="30" fill="#000000" fill-opacity="0.7"/>
<text x="17784.67" y="265.93" font-size="24" fill="#ee8383">grunt040</text>
<rect x="17078.67" y="2109.97" width="72" height="96" fill="#e64040" fill-opacity="0.82" stroke="#ee8383" stroke-width="2"/>
<rect x="17080.67" y="2111.97" width="127.04" height="30" fill="#000000" fill-opacity="0.7"/>
<text x="17084.67" y="2135.97" font-size="24" fill="#ee8383">grunt034</text>
<rect x="17538.67" y="1852.36" width="72" height="96" fill="#e64040" fill-opacity="0.82" stroke="#ee8383" stroke-width="2"/>
<rect x="17540.67" y="1854.36" width="127.04" height="30" fill="#000000" fill-opacity="0.7"/>
<text x="17544.67" y="1878.36" font-size="24" fill="#ee8383">grunt037</text>
<rect x="17538.67" y="1352.36" width="72" height="96" fill="#e64040" fill-opacity="0.82" stroke="#ee8383" stroke-width="2"/>
<rect x="17540.67" y="1354.36" width="127.04" height="30" fill="#000000" fill-opacity="0.7"/>
<text x="17544.67" y="1378.36" font-size="24" fill="#ee8383">grunt036</text>
<rect x="17538.67" y="852.36" width="72" height="96" fill="#e64040" fill-opacity="0.82" stroke="#ee8383" stroke-width="2"/>
<rect x="17540.67" y="854.36" width="127.04" height="30" fill="#000000" fill-opacity="0.7"/>
<text x="17544.67" y="878.36" font-size="24" fill="#ee8383">grunt035</text>
<rect x="17978.67" y="1652.22" width="72" height="96" fill="#e64040" fill-opacity="0.82" stroke="#ee8383" stroke-width="2"/>
<rect x="17980.67" y="1654.22" width="127.04" height="30" fill="#000000" fill-opacity="0.7"/>
<text x="17984.67" y="1678.22" font-size="24" fill="#ee8383">grunt043</text>
<rect x="17818.67" y="712.22" width="72" height="96" fill="#f273b3" fill-opacity="0.82" stroke="#f7a4cd" stroke-width="2"/>
<rect x="17820.67" y="714.22" width="127.04" height="30" fill="#000000" fill-opacity="0.7"/>
<text x="17824.67" y="738.22" font-size="24" fill="#f7a4cd">flyer001</text>
<rect x="17084" y="1977" width="192" height="32" fill="#33e6e6" fill-opacity="0.82" stroke="#7aeeee" stroke-width="2"/>
<rect x="17086" y="1979" width="112.16" height="30" fill="#000000" fill-opacity="0.7"/>
<text x="17090" y="2003" font-size="24" fill="#7aeeee">movp013</text>
<rect x="18096" y="732" width="64" height="96" fill="#b3b3b3" fill-opacity="0.82" stroke="#cdcdcd" stroke-width="2"/>
<rect x="18098" y="734" width="112.16" height="30" fill="#000000" fill-opacity="0.7"/>
<text x="18102" y="758" font-size="24" fill="#cdcdcd">misc041</text>
<rect x="17360" y="1052" width="64" height="96" fill="#b3b3b3" fill-opacity="0.82" stroke="#cdcdcd" stroke-width="2"/>
<rect x="17362" y="1054" width="112.16" height="30" fill="#000000" fill-opacity="0.7"/>
<text x="17366" y="1078" font-size="24" fill="#cdcdcd">misc033</text>
<rect x="18096" y="1372" width="64" height="96" fill="#b3b3b3" fill-opacity="0.82" stroke="#cdcdcd" stroke-width="2"/>
<rect x="18098" y="1374" width="112.16" height="30" fill="#000000" fill-opacity="0.7"/>
<text x="18102" y="1398" font-size="24" fill="#cdcdcd">misc042</text>
<rect x="17360" y="1692" width="64" height="96" fill="#b3b3b3" fill-opacity="0.82" stroke="#cdcdcd" stroke-width="2"/>
<rect x="17362" y="1694" width="112.16" height="30" fill="#000000" fill-opacity="0.7"/>
<text x="17366" y="1718" font-size="24" fill="#cdcdcd">misc034</text>
<rect x="18000" y="700" width="160" height="32" fill="#4dd959" fill-opacity="0.82" stroke="#8be693" stroke-width="2"/>
<rect x="18002" y="702" width="112.16" height="30" fill="#000000" fill-opacity="0.7"/>
<text x="18006" y="726" font-size="24" fill="#8be693">plat008</text>
<rect x="17360" y="1020" width="160" height="32" fill="#4dd959" fill-opacity="0.82" stroke="#8be693" stroke-width="2"/>
<rect x="17362" y="1022" width="112.16" height="30" fill="#000000" fill-opacity="0.7"/>
<text x="17366" y="1046" font-size="24" fill="#8be693">plat005</text>
<rect x="18000" y="1340" width="160" height="32" fill="#4dd959" fill-opacity="0.82" stroke="#8be693" stroke-width="2"/>
<rect x="18002" y="1342" width="112.16" height="30" fill="#000000" fill-opacity="0.7"/>
<text x="18006" y="1366" font-size="24" fill="#8be693">plat009</text>
<rect x="17360" y="1660" width="160" height="32" fill="#4dd959" fill-opacity="0.82" stroke="#8be693" stroke-width="2"/>
<rect x="17362" y="1662" width="112.16" height="30" fill="#000000" fill-opacity="0.7"/>
<text x="17366" y="1686" font-size="24" fill="#8be693">plat006</text>
<rect x="17424" y="1900" width="32" height="156" fill="#f28c26" fill-opacity="0.82" stroke="#f7b472" stroke-width="2"/>
<rect x="17426" y="1902" width="112.16" height="30" fill="#000000" fill-opacity="0.7"/>
<text x="17430" y="1926" font-size="24" fill="#f7b472">zone008</text>
<rect x="16908" y="268" width="64" height="64" fill="#f28c26" fill-opacity="0.82" stroke="#f7b472" stroke-width="2"/>
<rect x="16910" y="270" width="112.16" height="30" fill="#000000" fill-opacity="0.7"/>
<text x="16914" y="294" font-size="24" fill="#f7b472">zone006</text>
<rect x="17776" y="904" width="128" height="32" fill="#b3b3b3" fill-opacity="0.82" stroke="#cdcdcd" stroke-width="2"/>
<rect x="17778" y="906" width="112.16" height="30" fill="#000000" fill-opacity="0.7"/>
<text x="17782" y="930" font-size="24" fill="#cdcdcd">misc039</text>
<rect x="17436" y="480" width="128" height="32" fill="#4dd959" fill-opacity="0.82" stroke="#8be693" stroke-width="2"/>
<rect x="17438" y="482" width="112.16" height="30" fill="#000000" fill-opacity="0.7"/>
<text x="17442" y="506" font-size="24" fill="#8be693">plat007</text>
<rect x="17776" y="888" width="128" height="16" fill="#f28c26" fill-opacity="0.82" stroke="#f7b472" stroke-width="2"/>
<rect x="17778" y="890" width="112.16" height="30" fill="#000000" fill-opacity="0.7"/>
<text x="17782" y="914" font-size="24" fill="#f7b472">zone010</text>
</svg>