<?xml version="1.0" encoding="UTF-8"?>
<svg xmlns="http://www.w3.org/2000/svg" viewBox="-128 -128 5024 1472" width="2800" height="820" font-family="monospace">
<rect x="-128" y="-128" width="5024" height="1472" fill="#0a0a12"/>
<rect x="0" y="800" width="1200" height="192" fill="#8c8c8c" fill-opacity="0.82" stroke="#b4b4b4" stroke-width="2"/>
<rect x="2" y="802" width="127.04" height="30" fill="#000000" fill-opacity="0.7"/>
<text x="6" y="826" font-size="24" fill="#b4b4b4">floor001</text>
<rect x="3400" y="800" width="800" height="192" fill="#8c8c8c" fill-opacity="0.82" stroke="#b4b4b4" stroke-width="2"/>
<rect x="3402" y="802" width="127.04" height="30" fill="#000000" fill-opacity="0.7"/>
<text x="3406" y="826" font-size="24" fill="#b4b4b4">floor008</text>
<rect x="1904" y="800" width="696" height="192" fill="#8c8c8c" fill-opacity="0.82" stroke="#b4b4b4" stroke-width="2"/>
<rect x="1906" y="802" width="127.04" height="30" fill="#000000" fill-opacity="0.7"/>
<text x="1910" y="826" font-size="24" fill="#b4b4b4">floor002</text>
<rect x="1200" y="800" width="704" height="128" fill="#b3b3b3" fill-opacity="0.82" stroke="#cdcdcd" stroke-width="2"/>
<rect x="1202" y="802" width="112.16" height="30" fill="#000000" fill-opacity="0.7"/>
<text x="1206" y="826" font-size="24" fill="#cdcdcd">misc001</text>
<rect x="4380" y="800" width="420" height="192" fill="#8c8c8c" fill-opacity="0.82" stroke="#b4b4b4" stroke-width="2"/>
<rect x="4382" y="802" width="127.04" height="30" fill="#000000" fill-opacity="0.7"/>
<text x="4386" y="826" font-size="24" fill="#b4b4b4">floor009</text>
<rect x="2600" y="800" width="300" height="192" fill="#8c8c8c" fill-opacity="0.82" stroke="#b4b4b4" stroke-width="2"/>
<rect x="2602" y="802" width="127.04" height="30" fill="#000000" fill-opacity="0.7"/>
<text x="2606" y="826" font-size="24" fill="#b4b4b4">floor003</text>
<rect x="3100" y="1056" width="300" height="192" fill="#b3b3b3" fill-opacity="0.82" stroke="#cdcdcd" stroke-width="2"/>
<rect x="3102" y="1058" width="112.16" height="30" fill="#000000" fill-opacity="0.7"/>
<text x="3106" y="1082" font-size="24" fill="#cdcdcd">misc003</text>
<rect x="2900" y="896" width="200" height="192" fill="#8c8c8c" fill-opacity="0.82" stroke="#b4b4b4" stroke-width="2"/>
<rect x="2902" y="898" width="127.04" height="30" fill="#000000" fill-opacity="0.7"/>
<text x="2906" y="922" font-size="24" fill="#b4b4b4">floor004</text>
<rect x="3036" y="864" width="192" height="192" fill="#f28c26" fill-opacity="0.82" stroke="#f7b472" stroke-width="2"/>
<rect x="3038" y="866" width="112.16" height="30" fill="#000000" fill-opacity="0.7"/>
<text x="3042" y="890" font-size="24" fill="#f7b472">zone001</text>
<rect x="4316" y="800" width="64" height="320" fill="#73bff2" fill-opacity="0.82" stroke="#a4d6f7" stroke-width="2"/>
<rect x="4318" y="802" width="127.04" height="30" fill="#000000" fill-opacity="0.7"/>
<text x="4322" y="826" font-size="24" fill="#a4d6f7">glass002</text>
<rect x="4200" y="800" width="64" height="320" fill="#73bff2" fill-opacity="0.82" stroke="#a4d6f7" stroke-width="2"/>
<rect x="4202" y="802" width="127.04" height="30" fill="#000000" fill-opacity="0.7"/>
<text x="4206" y="826" font-size="24" fill="#a4d6f7">glass001</text>
<rect x="3100" y="800" width="300" height="64" fill="#8c8c8c" fill-opacity="0.82" stroke="#b4b4b4" stroke-width="2"/>
<rect x="3102" y="802" width="127.04" height="30" fill="#000000" fill-opacity="0.7"/>
<text x="3106" y="826" font-size="24" fill="#b4b4b4">floor005</text>
<rect x="3336" y="864" width="64" height="192" fill="#8c8c8c" fill-opacity="0.82" stroke="#b4b4b4" stroke-width="2"/>
<rect x="3338" y="866" width="127.04" height="30" fill="#000000" fill-opacity="0.7"/>
<text x="3342" y="890" font-size="24" fill="#b4b4b4">floor007</text>
<rect x="3100" y="864" width="64" height="192" fill="#b3b3b3" fill-opacity="0.82" stroke="#cdcdcd" stroke-width="2"/>
<rect x="3102" y="866" width="112.16" height="30" fill="#000000" fill-opacity="0.7"/>
<text x="3106" y="890" font-size="24" fill="#cdcdcd">misc002</text>
<rect x="681.33" y="711.93" width="72" height="96" fill="#e64040" fill-opacity="0.82" stroke="#ee8383" stroke-width="2"/>
<rect x="683.33" y="713.93" width="127.04" height="30" fill="#000000" fill-opacity="0.7"/>
<text x="687.33" y="737.93" font-size="24" fill="#ee8383">grunt001</text>
<rect x="2181.33" y="711.93" width="72" height="96" fill="#e64040" fill-opacity="0.82" stroke="#ee8383" stroke-width="2"/>
<rect x="2183.33" y="713.93" width="127.04" height="30" fill="#000000" fill-opacity="0.7"/>
<text x="2187.33" y="737.93" font-size="24" fill="#ee8383">grunt003</text>
<rect x="1481.33" y="552.8" width="72" height="96" fill="#e64040" fill-opacity="0.82" stroke="#ee8383" stroke-width="2"/>
<rect x="1483.33" y="554.8" width="127.04" height="30" fill="#000000" fill-opacity="0.7"/>
<text x="1487.33" y="578.8" font-size="24" fill="#ee8383">grunt002</text>
<rect x="3781.33" y="512.4" width="72" height="96" fill="#e64040" fill-opacity="0.82" stroke="#ee8383" stroke-width="2"/>
<rect x="3783.33" y="514.4" width="127.04" height="30" fill="#000000" fill-opacity="0.7"/>
<text x="3787.33" y="538.4" font-size="24" fill="#ee8383">grunt005</text>
<rect x="3214" y="712" width="72" height="96" fill="#e64040" fill-opacity="0.82" stroke="#ee8383" stroke-width="2"/>
<rect x="3216" y="714" width="127.04" height="30" fill="#000000" fill-opacity="0.7"/>
<text x="3220" y="738" font-size="24" fill="#ee8383">grunt004</text>
<rect x="-32" y="-32" width="64" height="64" fill="#334db3" fill-opacity="0.82" stroke="#7a8bcd" stroke-width="2"/>
<rect x="-30" y="-30" width="112.16" height="30" fill="#000000" fill-opacity="0.7"/>
<text x="-26" y="-6" font-size="24" fill="#7a8bcd">ceil001</text>
<rect x="4258" y="588" width="64" height="64" fill="#f28c26" fill-opacity="0.82" stroke="#f7b472" stroke-width="2"/>
<rect x="4260" y="590" width="112.16" height="30" fill="#000000" fill-opacity="0.7"/>
<text x="4264" y="614" font-size="24" fill="#f7b472">zone003</text>
<rect x="3164" y="960" width="64" height="64" fill="#8c8c8c" fill-opacity="0.82" stroke="#b4b4b4" stroke-width="2"/>
<rect x="3166" y="962" width="127.04" height="30" fill="#000000" fill-opacity="0.7"/>
<text x="3170" y="986" font-size="24" fill="#b4b4b4">floor006</text>
<rect x="3238" y="978" width="64" height="64" fill="#f28c26" fill-opacity="0.82" stroke="#f7b472" stroke-width="2"/>
<rect x="3240" y="980" width="112.16" height="30" fill="#000000" fill-opacity="0.7"/>
<text x="3244" y="1004" font-size="24" fill="#f7b472">zone002</text>
<rect x="168" y="728" width="64" height="64" fill="#f2f2f2" fill-opacity="0.82" stroke="#f7f7f7" stroke-width="2"/>
<rect x="170" y="730" width="127.04" height="30" fill="#000000" fill-opacity="0.7"/>
<text x="174" y="754" font-size="24" fill="#f7f7f7">spawn001</text>
</svg>